<?xml version="1.0" encoding="utf-8"?>
<!-- Generator: Adobe Illustrator 22.1.0, SVG Export Plug-In . SVG Version: 6.00 Build 0)  -->
<svg version="1.1" id="Layer_1" xmlns="http://www.w3.org/2000/svg" xmlns:xlink="http://www.w3.org/1999/xlink" x="0px" y="0px"
	 viewBox="0 0 680 148" style="enable-background:new 0 0 680 148;" xml:space="preserve">
<style type="text/css">
	.st0{fill:#333333;}
	.st1{fill:#FCB400;}
	.st2{fill:#18BFFF;}
	.st3{fill:#F82B60;}
	.st4{fill:#BA1E45;}
</style>
<g>
	<path class="st0" d="M272.8,85.2L261,53.3c-0.5-1.3-2.3-1.3-2.8,0l-11.8,31.9c-0.4,1,0.4,2,1.4,2h23.7
		C272.5,87.2,273.2,86.2,272.8,85.2 M278.3,103.1h-37.4c-0.6,0-1.2,0.4-1.4,1l-7.4,19.9c-0.2,0.6-0.8,1-1.4,1h-16.2
		c-1.1,0-1.8-1.1-1.4-2.1l37.3-93c0.2-0.6,0.8-0.9,1.4-0.9h15.5c0.6,0,1.2,0.4,1.4,0.9l37.3,93c0.4,1-0.3,2.1-1.4,2.1h-16.2
		c-0.6,0-1.2-0.4-1.4-1l-7.4-19.9C279.5,103.5,278.9,103.1,278.3,103.1 M313.7,61.6h13.9c0.8,0,1.5,0.7,1.5,1.5v60.4
		c0,0.8-0.7,1.5-1.5,1.5h-13.9c-0.8,0-1.5-0.7-1.5-1.5V63.1C312.2,62.2,312.9,61.6,313.7,61.6 M379.7,76.3c0,0.8-0.7,1.5-1.5,1.5
		h-0.4c-6.9,0-11.9,1.6-15.1,4.9c-3.2,3.3-4.8,8.7-4.8,16.3v24.4c0,0.8-0.7,1.5-1.5,1.5h-13.7c-0.8,0-1.5-0.7-1.5-1.5V63.1
		c0-0.8,0.7-1.5,1.5-1.5h13.6c0.8,0,1.5,0.7,1.5,1.5V75h0.3c1.6-4.9,4.3-8.7,7.8-11.4c3.6-2.7,8-4,13.2-4h0.7V76.3z M417.6,75.7
		c-0.8,0-1.5,0.7-1.5,1.5v25.1c0,2.6,0.5,4.4,1.5,5.5c1,1.1,2.7,1.6,5.2,1.6h1.4c0.8,0,1.5,0.7,1.5,1.5v12.6c0,0.8-0.7,1.5-1.5,1.5
		h-5.9c-6.1,0-10.8-1.6-14.1-4.7c-3.3-3.2-4.9-7.8-4.9-14.1V77.2c0-0.8-0.7-1.5-1.5-1.5h-8.7c-0.8,0-1.5-0.7-1.5-1.5V63.1
		c0-0.8,0.7-1.5,1.5-1.5h8.7c0.8,0,1.5-0.7,1.5-1.5V37.7c0-0.8,0.7-1.5,1.5-1.5h13.9c0.8,0,1.5,0.7,1.5,1.5v22.4
		c0,0.8,0.7,1.5,1.5,1.5h10c0.8,0,1.5,0.7,1.5,1.5v11.1c0,0.8-0.7,1.5-1.5,1.5H417.6z M481.1,106.1c3.2-3.3,4.7-7.6,4.7-12.9
		c0-5.3-1.6-9.6-4.7-12.9s-7.3-4.9-12.4-4.9c-5.1,0-9.3,1.6-12.4,4.9c-3.2,3.3-4.7,7.6-4.7,12.9c0,5.3,1.6,9.6,4.7,12.9
		c3.2,3.3,7.3,4.9,12.4,4.9C473.8,111.1,478,109.4,481.1,106.1 M449.1,123c-4.7-2.7-8.3-6.5-11-11.6c-2.7-5.1-4-11.1-4-18.2
		c0-7,1.3-13.1,4-18.2c2.7-5.1,6.4-8.9,11-11.6c4.7-2.7,9.8-4,15.4-4c4.9,0,9.2,1,12.7,2.9c3.5,1.9,6.3,4.6,8.4,8.1h0.3v-7.4
		c0-0.8,0.7-1.5,1.5-1.5h13.7c0.8,0,1.5,0.7,1.5,1.5v60.4c0,0.8-0.7,1.5-1.5,1.5h-13.7c-0.8,0-1.5-0.7-1.5-1.5V116h-0.3
		c-2.1,3.5-4.9,6.2-8.4,8.1c-3.5,1.9-7.8,2.9-12.7,2.9C458.9,127,453.8,125.7,449.1,123 M559.7,106.1c3.2-3.3,4.7-7.6,4.7-12.9
		c0-5.3-1.6-9.6-4.7-12.9c-3.2-3.3-7.3-4.9-12.4-4.9c-5.1,0-9.3,1.6-12.4,4.9c-3.2,3.3-4.7,7.6-4.7,12.9c0,5.3,1.6,9.6,4.7,12.9
		c3.2,3.3,7.3,4.9,12.4,4.9C552.4,111.1,556.6,109.4,559.7,106.1 M538.9,124.1c-3.5-1.9-6.3-4.6-8.4-8.1h-0.3v7.4
		c0,0.8-0.7,1.5-1.5,1.5h-13.9c-0.8,0-1.5-0.7-1.5-1.5v-93c0-0.8,0.7-1.5,1.5-1.5h13.9c0.8,0,1.5,0.7,1.5,1.5v40.1h0.3
		c2.1-3.5,4.9-6.2,8.4-8.1c3.5-1.9,7.8-2.9,12.7-2.9c5.6,0,10.7,1.3,15.4,4c4.7,2.7,8.3,6.5,11,11.6c2.7,5.1,4,11.1,4,18.2
		c0,7-1.4,13.1-4,18.2c-2.7,5.1-6.4,8.9-11,11.6c-4.7,2.7-9.8,4-15.4,4C546.6,127,542.4,126,538.9,124.1 M605.4,124.9h-13.9
		c-0.8,0-1.5-0.7-1.5-1.5v-93c0-0.8,0.7-1.5,1.5-1.5h13.9c0.8,0,1.5,0.7,1.5,1.5v93C606.9,124.3,606.2,124.9,605.4,124.9
		 M638.1,76.2c-2.3,1.8-3.9,4.4-4.7,7.8c-0.2,0.9,0.5,1.8,1.5,1.8h26.4c0.9,0,1.6-0.8,1.5-1.7c-0.5-3.2-1.9-5.8-4.1-7.7
		c-2.6-2.2-6-3.4-10.2-3.4C644.2,73.1,640.8,74.1,638.1,76.2 M671.9,68.4c5.4,5.9,8.1,14.2,8.1,25v1.8c0,0.8-0.7,1.5-1.5,1.5h-44.1
		c-0.9,0-1.6,0.8-1.5,1.8c0.7,4,2.5,7.2,5.3,9.6c3.2,2.7,7.3,4,12.3,4c6.4,0,12.3-2.5,17.7-7.5c0.7-0.6,1.7-0.5,2.2,0.3l6.7,9.7
		c0.4,0.6,0.3,1.5-0.2,2c-3.3,2.9-7,5.3-10.9,7.3c-4.4,2.1-9.6,3.2-15.5,3.2c-6.9,0-12.8-1.4-18-4.2c-5.1-2.8-9.1-6.7-11.9-11.8
		c-2.8-5.1-4.3-10.9-4.3-17.6c0-6.7,1.4-12.6,4.1-17.7c2.7-5.1,6.6-9.1,11.5-11.9c4.9-2.8,10.7-4.3,17.3-4.3
		C659,59.5,666.5,62.5,671.9,68.4 M330.9,39.2c0,5.7-4.6,10.2-10.2,10.2s-10.2-4.6-10.2-10.2S315,29,320.6,29S330.9,33.6,330.9,39.2
		"/>
	<path class="st1" d="M79,1.9L13,29.2c-3.7,1.5-3.6,6.7,0.1,8.2l66.2,26.3c5.8,2.3,12.3,2.3,18.1,0l66.2-26.3
		c3.7-1.5,3.7-6.7,0.1-8.2l-66-27.3C91.8-0.6,85-0.6,79,1.9"/>
	<path class="st2" d="M94.3,78v65.6c0,3.1,3.1,5.3,6,4.1l73.8-28.6c1.7-0.7,2.8-2.3,2.8-4.1V49.3c0-3.1-3.1-5.3-6-4.1L97.1,73.9
		C95.4,74.5,94.3,76.1,94.3,78"/>
	<path class="st3" d="M77,81.3L55.1,91.9L52.9,93L6.7,115.2c-2.9,1.4-6.7-0.7-6.7-4V49.6c0-1.2,0.6-2.2,1.4-3
		c0.3-0.3,0.7-0.6,1.1-0.8c1.1-0.7,2.7-0.8,4-0.3l70.1,27.8C80.2,74.7,80.5,79.7,77,81.3"/>
	<path class="st4" d="M77,81.3L55.1,91.9L1.4,46.6c0.3-0.3,0.7-0.6,1.1-0.8c1.1-0.7,2.7-0.8,4-0.3l70.1,27.8
		C80.2,74.7,80.5,79.7,77,81.3"/>
</g>
</svg>
