<?xml version="1.0" encoding="UTF-8" standalone="no"?>
<svg
   xmlns:dc="http://purl.org/dc/elements/1.1/"
   xmlns:cc="http://creativecommons.org/ns#"
   xmlns:rdf="http://www.w3.org/1999/02/22-rdf-syntax-ns#"
   xmlns:svg="http://www.w3.org/2000/svg"
   xmlns="http://www.w3.org/2000/svg"
   viewBox="0 0 624 296.69333"
   height="296.69333"
   width="624"
   xml:space="preserve"
   id="svg2"
   version="1.1"><metadata
     id="metadata8"><rdf:RDF><cc:Work
         rdf:about=""><dc:format>image/svg+xml</dc:format><dc:type
           rdf:resource="http://purl.org/dc/dcmitype/StillImage" /></cc:Work></rdf:RDF></metadata><defs
     id="defs6"><clipPath
       id="clipPath18"
       clipPathUnits="userSpaceOnUse"><path
         id="path16"
         d="M 0,222.52 H 468 V 0 H 0 Z" /></clipPath></defs><g
     transform="matrix(1.3333333,0,0,-1.3333333,0,296.69333)"
     id="g10"><g
       id="g12"><g
         clip-path="url(#clipPath18)"
         id="g14"><g
           transform="translate(364.5583,118.5788)"
           id="g20"><path
             id="path22"
             style="fill:#6772e5;fill-opacity:1;fill-rule:evenodd;stroke:none"
             d="M 0,0 C 0,11.253 6.939,15.964 13.181,15.964 19.313,15.964 25.814,11.24 25.814,0 Z m 49.442,-9.441 c 0,25.575 -12.381,45.764 -36.102,45.764 -23.757,0 -38.212,-20.197 -38.212,-45.63 0,-30.113 17.045,-45.347 41.365,-45.347 11.935,0 20.895,2.715 27.678,6.473 v 20.119 c -6.806,-3.436 -14.613,-5.525 -24.529,-5.525 -9.732,0 -18.306,3.449 -19.423,15.15 h 48.885 c 0.113,1.35 0.338,6.581 0.338,8.996" /></g><g
           transform="translate(295.1105,85.9879)"
           id="g24"><path
             id="path26"
             style="fill:#6772e5;fill-opacity:1;fill-rule:evenodd;stroke:none"
             d="m 0,0 c -5.857,0 -9.355,2.112 -11.778,4.738 l -0.149,37.108 c 2.604,2.851 6.195,4.947 11.927,4.947 9.137,0 15.425,-10.235 15.425,-23.299 C 15.425,10.051 9.236,0 0,0 m 5.967,68.914 c -9.788,-0.001 -16.107,-4.607 -19.56,-7.832 l -1.299,6.171 h -21.99 l 0.009,-116.565 24.972,5.308 0.052,28.258 c 3.586,-2.626 8.927,-6.318 17.665,-6.318 17.865,0 34.205,14.378 34.205,46.108 0,29.072 -16.516,44.87 -34.054,44.87" /></g><g
           transform="translate(223.8013,160.8481)"
           id="g28"><path
             id="path30"
             style="fill:#6772e5;fill-opacity:1;fill-rule:evenodd;stroke:none"
             d="M 0,0 25.068,5.328 V 25.666 L 0,20.338 Z" /></g><path
           id="path32"
           style="fill:#6772e5;fill-opacity:1;fill-rule:evenodd;stroke:none"
           d="m 223.801,65.709 h 25.068 v 87.532 h -25.068 z" /><g
           transform="translate(196.9445,145.8587)"
           id="g34"><path
             id="path36"
             style="fill:#6772e5;fill-opacity:1;fill-rule:evenodd;stroke:none"
             d="M 0,0 -1.565,7.383 H -23.154 V -80.15 H 1.802 v 59.341 c 5.9,7.75 15.862,6.255 19.041,5.229 V 7.373 C 17.516,8.569 5.843,10.746 0,0" /></g><g
           transform="translate(146.8676,174.9235)"
           id="g38"><path
             id="path40"
             style="fill:#6772e5;fill-opacity:1;fill-rule:evenodd;stroke:none"
             d="M 0,0 -24.38,-5.182 -24.486,-85.3 c 0,-14.784 11.117,-25.699 25.937,-25.699 8.164,0 14.194,1.483 17.525,3.309 v 20.328 c -3.199,-1.279 -18.957,-5.861 -18.957,8.858 v 35.526 h 18.966 v 21.296 H 0.019 Z" /></g><g
           transform="translate(79.2567,127.83)"
           id="g42"><path
             id="path44"
             style="fill:#6772e5;fill-opacity:1;fill-rule:evenodd;stroke:none"
             d="m 0,0 c 0,3.898 3.248,5.411 8.481,5.411 7.595,0 17.24,-2.326 24.836,-6.426 v 23.517 c -8.271,3.3 -16.542,4.569 -24.813,4.569 -20.256,0 -33.761,-10.579 -33.761,-28.257 0,-27.645 37.963,-23.155 37.963,-35.077 0,-4.614 -4.01,-6.106 -9.581,-6.106 -8.271,0 -18.947,3.416 -27.327,7.974 v -23.842 c 9.284,-3.994 18.696,-5.669 27.304,-5.669 20.762,0 35.069,10.26 35.069,28.235 C 38.171,-5.896 0,-11.238 0,0" /></g></g></g></g></svg>